<?xml version="1.0" encoding="UTF-8"?>
<svg xmlns="http://www.w3.org/2000/svg" viewBox="0 0 24 24" width="512" height="512">
  <path fill="#25D366" d="M12.031 0C5.395 0 .015 5.395.015 12.031c0 2.126.549 4.14 1.516 5.867L0 23.953l6.236-1.571c1.691.956 3.663 1.506 5.795 1.506 6.636 0 12.016-5.396 12.016-12.032C24.047 5.23 18.667 0 12.031 0z"/>
  <path fill="#FFF" d="M18.845 15.655c-.29-.145-1.713-.85-1.977-.946-.265-.097-.457-.145-.649.145-.192.29-.745.946-.913 1.139-.168.192-.336.216-.625.072-.29-.145-1.222-.452-2.327-1.442-.862-.77-1.444-1.72-1.611-2.009-.168-.29-.018-.446.126-.59.13-.13.29-.336.434-.505.144-.168.192-.29.288-.48.096-.192.048-.36-.024-.504-.072-.145-.649-1.565-.89-2.14-.234-.564-.471-.487-.649-.496-.168-.01-.36-.01-.552-.01-.192 0-.505.072-.769.36-.265.29-1.01 1.01-1.01 2.454s1.034 2.84 1.178 3.033c.144.192 2.037 3.195 4.939 4.545 2.902 1.349 2.902.899 3.431.841.528-.057 1.713-.701 1.953-1.378.24-.676.24-1.254.168-1.378-.072-.124-.265-.196-.554-.341z"/>
</svg>
